<svg version="1.1" id="Layer_1" xmlns="http://www.w3.org/2000/svg" xmlns:xlink="http://www.w3.org/1999/xlink" x="0px" y="0px"
	 width="100%" viewBox="0 0 400 400" enable-background="new 0 0 400 400" xml:space="preserve">
<path fill="#000000" opacity="1.000000" stroke="none" 
	d="
M174.239136,197.212326 
	C190.546783,182.654282 205.352676,167.081512 220.161942,151.523956 
	C225.894928,145.501282 231.086609,138.966217 236.626846,132.755508 
	C238.358749,130.814041 238.803146,129.046219 237.990967,126.438416 
	C235.836594,119.521103 238.622589,113.904640 244.720901,112.046318 
	C251.467911,109.990318 256.829529,112.792122 258.944916,119.874832 
	C259.659119,122.266151 260.650665,123.391914 263.127991,124.001137 
	C269.615875,125.596672 272.578918,130.704193 271.202332,137.203812 
	C270.052856,142.631149 264.344421,147.041870 258.791840,145.359360 
	C253.282913,143.690048 250.049515,146.123688 246.464874,149.195938 
	C219.465530,172.336060 194.379410,197.376236 171.336716,224.468536 
	C168.611771,227.672363 166.856918,230.437134 168.674072,235.087189 
	C170.636810,240.109772 166.010681,246.658585 160.502792,248.059723 
	C154.548599,249.574402 149.333527,246.797897 147.748077,240.827927 
	C146.904007,237.649628 145.153625,236.226578 142.115082,235.342346 
	C136.000290,233.562927 133.004578,227.632248 134.792938,221.581955 
	C136.426743,216.054626 143.270538,212.182037 148.767761,214.382339 
	C152.216339,215.762665 154.455933,214.894012 156.838181,212.756897 
	C162.539764,207.642014 168.259827,202.547729 174.239136,197.212326 
z"/>
<path fill="#000000" opacity="1.000000" stroke="none" 
	d="
M184.962509,150.041214 
	C189.358795,154.623138 193.391907,159.072876 197.723709,163.209869 
	C200.739944,166.090454 200.452850,168.245056 197.628799,171.106552 
	C190.757492,178.068924 190.931519,178.095871 183.567245,171.427078 
	C174.557785,163.268433 165.430252,155.239822 156.324738,147.187805 
	C154.020935,145.150558 151.785736,143.950668 148.249634,145.139862 
	C142.098419,147.208481 137.050400,144.403381 135.120865,138.711288 
	C132.999451,132.453110 135.436462,126.758720 141.715225,124.632812 
	C145.141113,123.472862 147.255920,122.161591 148.204712,118.247353 
	C149.539352,112.741348 156.200821,110.081825 162.088943,111.918488 
	C167.278687,113.537315 170.323273,119.168762 168.375183,124.731392 
	C167.134705,128.273499 167.908524,130.547134 170.338638,133.164215 
	C175.320221,138.529068 179.951401,144.219269 184.962509,150.041214 
z"/>
<path fill="#000000" opacity="1.000000" stroke="none" 
	d="
M265.777222,214.822021 
	C270.878967,217.700958 272.065247,222.052368 271.193176,226.997208 
	C270.397766,231.507614 267.406403,234.284546 262.970947,235.419632 
	C260.912903,235.946335 259.677124,236.888184 258.923187,239.172134 
	C256.519867,246.452606 250.734512,249.763016 244.450043,248.021194 
	C239.601288,246.677307 235.250122,240.820496 238.171768,233.420502 
	C239.231216,230.737122 237.798660,228.997147 236.281006,227.160507 
	C227.681458,216.753387 218.750153,206.626450 209.252502,197.046585 
	C205.603622,193.366135 205.675293,190.741165 209.470413,187.672974 
	C210.238815,187.051758 210.921768,186.277359 211.491943,185.466568 
	C213.988419,181.916656 216.389145,182.501755 219.288422,185.170502 
	C228.847031,193.969131 238.583313,202.574463 248.172531,211.340271 
	C251.386765,214.278503 254.378723,216.798355 259.118195,214.087112 
	C260.986053,213.018616 263.366425,213.757248 265.777222,214.822021 
z"/>
</svg>